<svg width="73" height="72" viewBox="0 0 73 72" fill="none" xmlns="http://www.w3.org/2000/svg">
<path d="M36.5 12C30.1421 12.0237 24.0514 14.5599 19.5556 19.0556C15.0599 23.5514 12.5237 29.6421 12.5 36M36.5 20.43C32.3706 20.43 28.4103 22.0704 25.4904 24.9903C22.5704 27.9103 20.93 31.8706 20.93 36M36.5 51.57C40.6294 51.57 44.5897 49.9296 47.5097 47.0097C50.4296 44.0897 52.07 40.1294 52.07 36M36.5 60.075C42.8579 60.0513 48.9486 57.5151 53.4444 53.0194C57.9401 48.5236 60.4763 42.4329 60.5 36.075M36.5 3.75C30.1216 3.75 23.8864 5.64143 18.5829 9.18511C13.2794 12.7288 9.14583 17.7655 6.7049 23.6585C4.26397 29.5514 3.62532 36.0358 4.86969 42.2917C6.11406 48.5476 9.18558 54.294 13.6958 58.8042C18.2061 63.3144 23.9525 66.386 30.2084 67.6303C36.4642 68.8747 42.9486 68.236 48.8416 65.7951C54.7345 63.3542 59.7712 59.2206 63.3149 53.9171C66.8586 48.6137 68.75 42.3784 68.75 36C68.746 27.448 65.347 19.2474 59.2998 13.2002C53.2526 7.15301 45.052 3.75397 36.5 3.75ZM36.5 26.79C38.3216 26.79 40.1022 27.3302 41.6168 28.3422C43.1314 29.3542 44.3119 30.7926 45.0089 32.4755C45.706 34.1584 45.8884 36.0102 45.533 37.7968C45.1777 39.5833 44.3005 41.2244 43.0125 42.5125C41.7244 43.8005 40.0834 44.6777 38.2968 45.033C36.5102 45.3884 34.6584 45.206 32.9755 44.5089C31.2926 43.8118 29.8542 42.6314 28.8422 41.1168C27.8302 39.6022 27.29 37.8216 27.29 36C27.29 33.5574 28.2604 31.2148 29.9876 29.4875C31.7148 27.7603 34.0574 26.79 36.5 26.79Z" stroke="#F8F8F8" stroke-width="2.5" stroke-linecap="round" stroke-linejoin="round"/>
</svg>
