<?xml version="1.0" standalone="no"?>
<!DOCTYPE svg PUBLIC "-//W3C//DTD SVG 20010904//EN"
 "http://www.w3.org/TR/2001/REC-SVG-20010904/DTD/svg10.dtd">
<svg version="1.0" xmlns="http://www.w3.org/2000/svg"
 width="120.000000pt" height="120.000000pt" viewBox="0 0 120.000000 120.000000"
 preserveAspectRatio="xMidYMid meet">

<g transform="translate(0.000000,120.000000) scale(0.100000,-0.100000)"
fill="#000000" stroke="none">
<path d="M558 1193 c23 -2 61 -2 85 0 23 2 4 4 -43 4 -47 0 -66 -2 -42 -4z"/>
<path d="M473 1183 c9 -2 23 -2 30 0 6 3 -1 5 -18 5 -16 0 -22 -2 -12 -5z"/>
<path d="M703 1183 c9 -2 23 -2 30 0 6 3 -1 5 -18 5 -16 0 -22 -2 -12 -5z"/>
<path d="M392 1163 c-24 -8 -41 -17 -39 -19 4 -5 97 26 97 32 0 6 -11 4 -58
-13z"/>
<path d="M760 1172 c8 -5 26 -13 40 -16 17 -5 20 -4 10 2 -8 5 -26 13 -40 16
-17 5 -20 4 -10 -2z"/>
<path d="M718 1153 c7 -3 16 -2 19 1 4 3 -2 6 -13 5 -11 0 -14 -3 -6 -6z"/>
<path d="M885 1117 c73 -40 163 -121 205 -187 37 -58 52 -68 19 -12 -36 61
-140 161 -205 198 -33 19 -65 34 -70 34 -5 0 18 -15 51 -33z"/>
<path d="M300 1119 c-17 -13 -18 -17 -5 -10 33 17 51 31 40 31 -5 0 -21 -10
-35 -21z"/>
<path d="M188 1033 c-38 -38 -74 -77 -80 -88 -6 -11 4 -3 21 17 17 20 57 60
88 87 31 28 53 51 49 51 -4 0 -39 -30 -78 -67z"/>
<path d="M184 998 l-19 -23 23 19 c12 11 22 21 22 23 0 8 -8 2 -26 -19z"/>
<path d="M990 1016 c0 -2 8 -10 18 -17 15 -13 16 -12 3 4 -13 16 -21 21 -21
13z"/>
<path d="M671 946 c3 -4 46 -11 94 -17 103 -11 129 -22 120 -50 -4 -11 -2 -19
4 -19 6 0 11 11 11 25 0 37 -40 51 -170 62 -36 3 -62 2 -59 -1z"/>
<path d="M350 866 c0 -10 5 -14 11 -10 9 5 10 -1 5 -20 -4 -15 -2 -26 4 -26 6
0 8 -10 4 -25 -3 -14 -2 -25 3 -25 5 0 8 -13 5 -30 l-4 -30 -173 0 -172 0 -7
-37 c-7 -46 -8 -97 -1 -115 4 -10 45 -12 200 -10 142 2 195 0 195 -9 0 -6 11
-24 25 -41 14 -16 25 -24 25 -17 0 10 3 10 12 1 7 -7 18 -12 25 -12 20 0 -6
49 -33 63 -19 10 -2 12 94 11 64 0 124 -4 133 -8 9 -4 33 -3 55 2 58 12 74 6
75 -31 l2 -32 6 35 6 35 162 0 161 0 5 30 c2 17 1 54 -2 84 l-6 53 -157 -1
c-87 -1 -158 2 -158 6 0 4 7 31 15 58 9 28 13 61 10 74 l-6 24 -23 -22 c-26
-24 -38 -27 -30 -7 3 8 1 17 -5 21 -6 3 -11 2 -11 -2 0 -5 -7 -18 -16 -29 -15
-19 -15 -19 -11 2 3 17 0 20 -13 17 -21 -5 -29 -36 -25 -94 3 -34 0 -39 -19
-40 -11 0 -29 -2 -38 -4 -9 -2 -68 0 -130 3 l-112 7 -2 30 c-2 45 -3 47 -16
39 -8 -5 -9 -2 -5 9 4 10 1 17 -6 17 -8 0 -6 4 3 10 8 5 10 10 4 10 -7 0 -14
7 -17 14 -4 10 -1 13 9 9 7 -3 14 0 14 6 0 6 -6 11 -12 11 -7 0 -23 3 -35 6
-17 5 -23 2 -23 -10z m506 -54 c-17 -16 -18 -16 -5 5 7 12 15 20 18 17 3 -2
-3 -12 -13 -22z m-79 -84 c-3 -8 -6 -5 -6 6 -1 11 2 17 5 13 3 -3 4 -12 1 -19z
m43 -8 c-8 -5 -19 -10 -25 -10 -5 0 -3 5 5 10 8 5 20 10 25 10 6 0 3 -5 -5
-10z m-388 -49 c-14 -9 -14 -101 0 -101 9 0 9 -3 1 -11 -21 -21 -33 2 -33 60
0 63 4 73 27 64 8 -3 10 -9 5 -12z m62 -13 c-4 -6 -10 -5 -15 3 -16 25 -10 -9
7 -42 14 -29 11 -69 -5 -69 -13 0 -35 30 -27 37 4 4 11 1 16 -7 18 -28 11 16
-7 48 -15 25 -15 32 -4 46 10 12 17 14 27 5 8 -6 11 -16 8 -21z m-122 -38 c-2
-33 -7 -60 -12 -60 -5 0 -10 27 -12 60 -2 48 0 60 12 60 12 0 14 -12 12 -60z
m168 -50 c6 0 10 -4 10 -10 0 -5 -7 -10 -15 -10 -12 0 -15 13 -13 68 l2 67 3
-57 c2 -32 8 -58 13 -58z m71 49 c6 -51 1 -78 -8 -51 -7 18 -23 15 -23 -5 0
-9 -3 -14 -6 -10 -3 3 -3 33 1 67 9 76 28 75 36 -1z m117 -1 c-2 -48 -7 -63
-18 -63 -11 0 -16 15 -18 63 -3 57 -1 62 18 62 19 0 21 -5 18 -62z m60 5 c12
-58 9 -79 -9 -53 -8 13 -10 13 -20 0 -8 -11 -9 -5 -5 25 3 22 6 50 6 63 0 42
16 22 28 -35z m71 -3 c0 -33 -4 -60 -9 -60 -5 0 -7 9 -5 20 2 11 0 22 -6 25
-5 4 -9 -5 -9 -19 0 -14 -4 -26 -10 -26 -6 0 -10 27 -10 60 0 57 1 60 24 60
23 0 24 -3 25 -60z"/>
<path d="M580 610 c0 -5 5 -10 11 -10 5 0 7 5 4 10 -3 6 -8 10 -11 10 -2 0 -4
-4 -4 -10z"/>
<path d="M704 659 c-3 -6 -1 -16 5 -22 8 -8 11 -5 11 11 0 24 -5 28 -16 11z"/>
<path d="M704 595 c4 -24 16 -30 16 -7 0 12 -4 22 -9 22 -5 0 -8 -7 -7 -15z"/>
<path d="M830 650 c0 -11 5 -20 10 -20 6 0 10 9 10 20 0 11 -4 20 -10 20 -5 0
-10 -9 -10 -20z"/>
<path d="M460 839 c0 -5 5 -7 10 -4 6 3 10 8 10 11 0 2 -4 4 -10 4 -5 0 -10
-5 -10 -11z"/>
<path d="M1140 845 c0 -5 5 -17 10 -25 5 -8 10 -10 10 -5 0 6 -5 17 -10 25 -5
8 -10 11 -10 5z"/>
<path d="M543 805 c0 -8 4 -15 9 -15 4 0 8 7 8 15 0 8 -4 15 -8 15 -5 0 -9 -7
-9 -15z"/>
<path d="M700 766 c0 -15 4 -25 9 -22 10 7 9 31 -2 42 -4 4 -7 -5 -7 -20z"/>
<path d="M475 760 c3 -5 8 -10 11 -10 2 0 4 5 4 10 0 6 -5 10 -11 10 -5 0 -7
-4 -4 -10z"/>
<path d="M545 760 c3 -5 13 -10 21 -10 8 0 14 5 14 10 0 6 -9 10 -21 10 -11 0
-17 -4 -14 -10z"/>
<path d="M1181 724 c0 -11 3 -14 6 -6 3 7 2 16 -1 19 -3 4 -6 -2 -5 -13z"/>
<path d="M568 723 c6 -2 18 -2 25 0 6 3 1 5 -13 5 -14 0 -19 -2 -12 -5z"/>
<path d="M1 664 c0 -11 3 -14 6 -6 3 7 2 16 -1 19 -3 4 -6 -2 -5 -13z"/>
<path d="M1193 600 c0 -47 2 -66 4 -42 2 23 2 61 0 85 -2 23 -4 4 -4 -43z"/>
<path d="M2 540 c0 -14 2 -19 5 -12 2 6 2 18 0 25 -3 6 -5 1 -5 -13z"/>
<path d="M513 514 c11 -11 167 -16 167 -5 0 7 -32 11 -87 11 -47 0 -84 -3 -80
-6z"/>
<path d="M1181 474 c0 -11 3 -14 6 -6 3 7 2 16 -1 19 -3 4 -6 -2 -5 -13z"/>
<path d="M370 454 c-6 -14 -7 -36 -4 -50 4 -14 2 -24 -4 -24 -6 0 -13 10 -15
23 -5 19 -5 19 -4 -3 2 -17 8 -25 22 -26 18 -1 20 5 20 52 0 30 -1 54 -3 54
-1 0 -7 -12 -12 -26z"/>
<path d="M1151 464 c0 -11 3 -14 6 -6 3 7 2 16 -1 19 -3 4 -6 -2 -5 -13z"/>
<path d="M281 421 c-39 -49 -41 -67 -2 -24 19 23 31 29 38 22 8 -8 11 -3 10
15 -3 35 -10 33 -46 -13z"/>
<path d="M472 430 c0 -14 2 -19 5 -12 2 6 2 18 0 25 -3 6 -5 1 -5 -13z"/>
<path d="M935 430 c3 -5 8 -10 11 -10 2 0 4 5 4 10 0 6 -5 10 -11 10 -5 0 -7
-4 -4 -10z"/>
<path d="M980 429 c-25 -9 -25 -9 3 -5 21 2 27 -1 27 -15 0 -11 5 -19 10 -19
14 0 13 13 -2 32 -10 11 -20 13 -38 7z"/>
<path d="M900 420 c0 -5 5 -10 11 -10 5 0 7 5 4 10 -3 6 -8 10 -11 10 -2 0 -4
-4 -4 -10z"/>
<path d="M1156 405 c-9 -26 -7 -32 5 -12 6 10 9 21 6 23 -2 3 -7 -2 -11 -11z"/>
<path d="M486 373 c-10 -3 -28 -14 -39 -24 l-21 -19 27 -1 c15 -1 32 -2 38 -3
7 -1 13 11 15 27 1 15 2 26 1 26 -1 -1 -11 -4 -21 -6z"/>
<path d="M540 371 c0 -11 29 -35 35 -29 2 2 -4 12 -15 21 -11 9 -20 13 -20 8z"/>
<path d="M241 344 c0 -11 3 -14 6 -6 3 7 2 16 -1 19 -3 4 -6 -2 -5 -13z"/>
<path d="M948 333 c6 -2 18 -2 25 0 6 3 1 5 -13 5 -14 0 -19 -2 -12 -5z"/>
<path d="M820 308 c-47 -11 -92 -23 -100 -26 -8 -3 -18 -5 -22 -4 -4 1 -53
-21 -110 -49 -57 -28 -94 -48 -83 -44 11 4 90 29 175 56 264 85 311 107 140
67z"/>
<path d="M234 267 c2 -43 8 -63 26 -82 13 -13 27 -22 32 -19 6 4 0 11 -13 18
-12 6 -24 20 -25 31 -1 11 -7 40 -13 65 l-10 45 3 -58z"/>
<path d="M618 313 c-11 -3 -18 -14 -18 -29 l0 -24 45 22 c25 12 45 25 45 28 0
8 -46 9 -72 3z"/>
<path d="M1090 270 c-68 -106 -216 -209 -350 -244 -30 -8 -46 -15 -34 -15 32
-1 130 35 198 73 65 37 169 137 205 199 33 55 18 45 -19 -13z"/>
<path d="M567 302 c-5 -7 -13 -9 -19 -6 -6 4 -8 2 -5 -3 9 -14 -19 -37 -33
-28 -13 8 -9 -17 5 -27 6 -5 6 -8 -2 -8 -7 0 -16 7 -20 15 -7 13 -11 12 -25
-5 -12 -13 -14 -22 -6 -26 5 -4 13 -1 17 5 4 6 14 9 22 7 8 -3 30 2 50 12 31
15 35 20 29 47 -4 20 -8 26 -13 17z"/>
<path d="M100 263 c0 -3 28 -34 63 -70 63 -66 144 -125 188 -137 13 -4 -3 8
-36 26 -33 18 -95 67 -137 109 -43 42 -78 74 -78 72z"/>
<path d="M180 206 c0 -2 8 -10 18 -17 15 -13 16 -12 3 4 -13 16 -21 21 -21 13z"/>
<path d="M323 153 c9 -2 25 -2 35 0 9 3 1 5 -18 5 -19 0 -27 -2 -17 -5z"/>
<path d="M410 34 c19 -9 51 -18 70 -20 31 -4 30 -3 -10 9 -83 25 -95 27 -60
11z"/>
<path d="M468 43 c7 -3 16 -2 19 1 4 3 -2 6 -13 5 -11 0 -14 -3 -6 -6z"/>
<path d="M558 3 c23 -2 61 -2 85 0 23 2 4 4 -43 4 -47 0 -66 -2 -42 -4z"/>
</g>
</svg>
