<svg width="73" height="72" viewBox="0 0 73 72" fill="none" xmlns="http://www.w3.org/2000/svg">
<path d="M14.225 28.6875H58.775C59.359 28.6899 59.936 28.5594 60.4622 28.3061C60.9884 28.0527 61.4501 27.683 61.8125 27.225C62.1838 26.7656 62.4494 26.2302 62.5903 25.6566C62.7313 25.083 62.7442 24.4854 62.6281 23.9062C61.6437 19.2656 58.4375 15.0187 53.6 11.9531C48.7625 8.8875 42.7719 7.3125 36.5 7.3125C30.2281 7.3125 24.1531 8.97187 19.4 11.9531C14.6469 14.9344 11.3562 19.2656 10.3719 23.9062C10.2558 24.4854 10.2687 25.083 10.4097 25.6566C10.5506 26.2302 10.8162 26.7656 11.1875 27.225C11.5499 27.683 12.0116 28.0527 12.5378 28.3061C13.064 28.5594 13.641 28.6899 14.225 28.6875ZM13.6906 24.6094C15.35 16.6781 25.1656 10.6875 36.5 10.6875C47.8344 10.6875 57.65 16.6781 59.3094 24.6094C59.3284 24.6969 59.3281 24.7875 59.3087 24.8749C59.2893 24.9623 59.2511 25.0444 59.1969 25.1156C59.1436 25.1753 59.0787 25.2235 59.0062 25.2574C58.9336 25.2912 58.855 25.31 58.775 25.3125H14.225C14.145 25.31 14.0664 25.2912 13.9938 25.2574C13.9213 25.2235 13.8564 25.1753 13.8031 25.1156C13.7489 25.0444 13.7107 24.9623 13.6913 24.8749C13.6719 24.7875 13.6716 24.6969 13.6906 24.6094ZM64.0063 43.425L53.375 47.6719L42.7437 43.425C42.3434 43.2835 41.9066 43.2835 41.5063 43.425L30.875 47.6719L20.2437 43.425C19.8434 43.2835 19.4066 43.2835 19.0063 43.425L7.75625 47.925C7.34251 48.0941 7.01108 48.4179 6.83248 48.8276C6.65389 49.2373 6.64223 49.7006 6.8 50.1187C6.92451 50.4347 7.14144 50.7057 7.42244 50.8964C7.70343 51.087 8.03542 51.1885 8.375 51.1875C8.58665 51.1912 8.79695 51.153 8.99375 51.075L12.3125 49.7531V51.75C12.3125 54.5845 13.4385 57.3029 15.4428 59.3072C17.4471 61.3115 20.1655 62.4375 23 62.4375H50C52.8345 62.4375 55.5529 61.3115 57.5572 59.3072C59.5615 57.3029 60.6875 54.5845 60.6875 51.75V48.4031L65.2437 46.575C65.4506 46.4937 65.6394 46.3725 65.7994 46.2183C65.9594 46.0641 66.0874 45.8799 66.1762 45.6762C66.265 45.4725 66.3128 45.2533 66.3169 45.0311C66.321 44.8089 66.2813 44.5881 66.2 44.3813C66.1187 44.1744 65.9975 43.9856 65.8433 43.8256C65.6891 43.6656 65.5049 43.5376 65.3012 43.4488C65.0975 43.36 64.8783 43.3122 64.6561 43.3081C64.4339 43.304 64.2131 43.3437 64.0063 43.425ZM57.3125 51.75C57.3051 53.6871 56.5323 55.5428 55.1625 56.9125C53.7928 58.2823 51.9371 59.0551 50 59.0625H23C21.0629 59.0551 19.2072 58.2823 17.8375 56.9125C16.4677 55.5428 15.6949 53.6871 15.6875 51.75V48.4031L19.625 46.8281L30.2563 51.075C30.6566 51.2165 31.0934 51.2165 31.4937 51.075L42.125 46.8281L52.7563 51.075C53.1566 51.2165 53.5934 51.2165 53.9937 51.075L57.3125 49.7531V51.75ZM67.4375 36C67.4375 36.4476 67.2597 36.8768 66.9432 37.1932C66.6268 37.5097 66.1976 37.6875 65.75 37.6875H7.25C6.80245 37.6875 6.37322 37.5097 6.05676 37.1932C5.74029 36.8768 5.5625 36.4476 5.5625 36C5.5625 35.5524 5.74029 35.1232 6.05676 34.8068C6.37322 34.4903 6.80245 34.3125 7.25 34.3125H65.75C66.1976 34.3125 66.6268 34.4903 66.9432 34.8068C67.2597 35.1232 67.4375 35.5524 67.4375 36Z" fill="#AD0606"/>
</svg>
